<svg viewBox="0 0 233 36" version="1.1" xmlns="http://www.w3.org/2000/svg" xmlns:xlink="http://www.w3.org/1999/xlink">
    <g id="Page-1" stroke="none" stroke-width="1" fill="none" fill-rule="evenodd">
        <g id="giftmeister-copy" fill="#E34F51">
            <path d="M19.612,16.381 L17.392,16.381 C13.809,16.306 13.935,18.6 12.741,20.504 C12.757,21.602 13.106,21.703 13.27,22.512 C13.869,22.689 14.467,22.865 15.067,23.04 C16.954,23.424 18.709,22.772 19.928,22.935 C19.964,22.97 19.999,23.005 20.034,23.04 C19.291,27.554 17.756285,29.3643282 13.4556277,28.580352 C12.4835347,28.2162317 11.593,27.547 11.156,27.163 C10.263,26.381 8.892,24.772 8.408,23.675 C7.329,21.233 6.393,13.764 8.302,11.308 C9.002,10.408 10.393,9.942 11.367,9.299 C12.164,8.776 13.812,7.326 15.173,7.82 C15.208,7.89 15.243,7.961 15.278,8.032 C17.081,8.08 18.284,9.742 19.928,10.252 C20.46,10.497 21.243,9.785 21.619,9.512 C22.754,8.688 25.732,6.807 24.579,4.544 C23.493,2.413 12.33,0.873 11.26,1.478 C7.334,3.702 3.121,6.599 1.535,11.097 C1.008,12.595 0.400615806,20.3258636 0.400615806,20.3258636 C0.548800555,22.2374347 1.49684085,25.3033432 2.71458182,27.5798431 C2.71458182,27.5798431 3.825,29.087 3.86,29.488 C4.688,30.065 5.304,30.709 5.934,31.39 C6.371,31.863 6.773,32.305 7.244,32.764 C9.08,34.557 12.243,35.608 14.854,35.935 C20.689,36.667 23.594,32.248 25.319,28.325 C25.831,27.16 26.656,25.099 26.481,23.675 C26.281,22.038 27.477,19.552 26.482,17.861 C26.386,15.598 20.627,16.215 19.612,16.381 Z M232.493,24.308 C231.858,24.167 231.224,24.027 230.59,23.885 C230.379,23.955 230.167,24.027 229.956,24.097 C229.332,25.695 229.257683,28.3236001 227.399683,28.9646001 C226.547683,29.4336001 225.083143,29.19888 224.729143,28.53388 C223.860143,26.89388 222.942,21.885 221.922,20.715 C221.008,19.667 219.569,18.568 218.646,17.861 L218.646,17.755 C219.774,16.546 220.956,16.261 221.922,14.584 C222.526,13.537 222.652,11.937 222.662,10.674 C222.589213,6.66698513 221.94,5.548 221.499,4.966 C218.189,0.597 215.163,2.074 209.978,0.737 C209.239,0.808 208.499,0.879 207.758,0.949 C206.907,0.931 205.866,0.887 205.327,1.16 C205.32,3.663 205.050028,4.15249682 204.96246,7.4079546 C204.912972,9.66308801 205.012,9.852 204.904,10.991 C204.49,15.367 203.944,19.743 204.798,24.414 C205.277,27.034 203.884,32.765 204.904,34.245 C206.271,35.115 208.702,33.665 210.189,34.245 C210.516,34.171 210.496,34.148 210.717,34.033 C210.787,33.329 210.858,32.624 210.929,31.919 C210.586,30.808 210.476,27.795 210.823,26 C211.158,24.267 210.549,22.354 211.246,20.927 C212.199,20.343 213.354,22.211 213.677,22.829 C215.099,25.555 215.094,29.864 217.588,31.813 C218.273,32.348 218.761951,33.0137813 219.732191,33.1876416 C225.632851,34.2449994 229.851,33.776 231.752,28.219 C232.048,27.353 232.874,25.98 232.598,25.154 C232.563,24.873 232.528,24.591 232.493,24.308 Z M211.88,16.275 C211.128,14.994 211.239,7.73 211.775,6.234 C214.184,7.519 214.824,13.21 213.043,15.641 C212.655,15.852 212.268,16.064 211.88,16.275 Z M150.786,0.949 C150.161,1.338 149.187,1.193 148.46,1.477 C146.951,2.068 145.139,3.309 144.232,4.542 C139.245,11.329 144.048,17.65 149.94,21.031 C152.047,22.24 156.753,25.524 155.753,28.852 C155.131,30.92 151.864,32.787 149.199,31.389 C148.553,31.05 146.499,28.304 145.816,27.584 C145.471,27.219 145.126,26.168 144.654,25.998 C144.126,25.808 143.468,26.383 143.174,26.526 C142.564,26.825 142.083,26.865 141.695,27.372 C141.128,28.185 141.958,30.558 142.858,31.389 C143.316,31.671 143.774,31.952 144.232,32.235 C144.984,32.951 145.486,33.948 146.452,34.455 C150.39,36.521 156.229,35.966 158.607,32.869 C159.328,31.931 160.012,30.965 160.404,29.698 C160.792,28.445 161.065,26.492 160.932,25.47 C159.748,16.303 149.368,18.764 147.72,11.411 C147.566,10.722 147.782,9.791 147.931,9.403 C147.794,9.01 148.074,8.518 148.248,8.134 C149.201,6.044 151.875,6.033 154.167,6.76 C156.043,7.354 157.104,8.618 157.232,10.989 C157.337,11.024 157.444,11.058 157.549,11.094 C158.656,11.396 160.84,10.29 161.566,9.719 C163.221,3.615 156.554,1.045 150.786,0.949 L150.786,0.949 Z M108.823,25.471 C108.325,23.108 108.821,20.869 108.611,18.6 C108.347,15.751 108.423,11.781 108.188,9.194 C108.007,7.208 108.853,4.392 107.977,2.64 C107.908,1.932 107.637,1.823 107.342,1.371 C107.096,1.336 106.849,1.301 106.603,1.266 C104.622,2.833 103.029,5.672 101.529,7.397 C100.025,9.126 98.107,10.566 96.773,12.47 C94.251,12.015 93.245,9.304 91.593,7.924 C90.41,6.937 89.072,6.294 87.787,5.388 C86.713,4.629 85.773,3.513 84.723,2.745 C84.23,2.463 83.736,2.182 83.243,1.899 C83.067,1.934 82.891,1.969 82.715,2.004 C81.869,3.777 82.163,6.668 81.764,8.981 C81.834,10.073 81.905,11.166 81.976,12.257 C81.493,14.109 82.469,15.761 81.976,18.07 C81.905,20.572 81.834,23.074 81.764,25.575 C81.761,27.231 81.327,30.081 82.504,31.071 C82.354,31.113 82.226,32.176 82.399,32.55 C82.434,32.727 82.469,32.904 82.504,33.079 C82.607,33.148 88.634,33.607 88.634,33.607 L89.057,33.607 C89.765,30.62 89.643,25.741 89.057,22.086 C88.869,20.911 89.372,19.388 88.952,18.598 C89.08,18.408 88.889,15.216 88.847,15.111 L88.847,14.582 C91.117,15.353 93.039,18.459 95.612,19.128 C96.079,19.487 96.8,18.47 97.091,18.282 C97.454,18.048 97.785,18.178 98.149,17.965 C99.647,17.088 100.736,15.266 102.271,14.371 C102.341,14.441 102.412,14.513 102.483,14.582 C102.427,14.717 102.476,18.022 102.588,18.811 C102.693,19.164 102.799,19.515 102.904,19.868 C102.729,20.426 102.703,22.847 102.904,23.885 C102.97,24.226 103.268,25.197 103.221,25.365 C102.493,27.945 103.736,30.434 103.116,33.715 C103.151,33.786 103.186,33.856 103.221,33.927 C104.607,33.975 107.094,32.978 107.766,33.398 C108.523,33.38 108.694,33.25 108.929,32.764 C108.046,31.362 109.224,27.375 108.823,25.471 L108.823,25.471 Z M138.524,20.397 C138.6,17.128 138.635,13.872 138.101,10.991 C138.066,9.158 138.031,7.326 137.996,5.494 C137.961,4.86 137.926,4.225 137.891,3.592 C137.855,3.099 137.821,2.606 137.786,2.112 C137.202,1.669 136.418,1.639 135.672,1.584 C135.324,1.796 134.32,1.967 133.981,1.796 C133.421,1.79 133.132,1.844 132.818,2.007 C132.583,4.666 132.161,10.7 132.924,12.895 C132.37,14.393 133.225,16.108 133.029,17.651 C132.817,19.322 133.33,23.345 133.663,25.05 C134.326,28.438 133.265,30.056 134.826,33.506 C135.957,33.719 136.98,33.444 138.314,33.4 L138.736,33.084 C138.978,29.121 138.717,26.4 138.314,22.619 C138.384,21.877 138.454,21.137 138.524,20.397 L138.524,20.397 Z M200.359,8.877 C200.409,7.611 200.808,3.982 200.254,2.852 C200.229,2.339 200.152,2.249 200.042,1.901 C198.863,1.755 198.068,2.381 196.659,2.112 C195.421,1.876 193.933,2.383 192.431,2.112 C191.28,1.905 189.122,1.868 187.78,2.112 C186.667,2.315 184.862,1.685 183.763,2.218 C182.094,2.497 182.911513,5.19948532 183.317513,7.04748532 C183.461694,7.70459053 183.707484,9.11757559 183.763,9.94609448 C183.849989,11.2443197 183.704082,12.0501822 183.763,13.4867172 C183.995339,19.1515576 183.948835,25.8876954 184.608,29.594 C185.093,32.318 184.599,33.238 185.771,35.091 C189.208,35.757 193.553,35.464 196.658,34.879 C197.781,34.667 199.029,34.849 199.935,34.668 C200.025,34.087 200.317,33.751 200.463,33.082 C200.358,31.778 200.252,30.475 200.146,29.171 C198.701,28.859 193.604,28.517 192.325,28.96 L191.796,28.96 C191.122,25.974 190.911,22.947 191.057,19.446 C192.402,19.48 193.435,19.189 194.756,19.023 C196.059,18.86 198.325,19.239 199.618,18.707 C200.017,17.699 200.535,15.679 199.723,14.69 L199.723,14.478 C196.968,14.24 194.103,14.294 191.479,14.055 C191.09,12.25 190.704,11.504 190.739,9.298 C193.213,9.317 198.485,10.03 200.147,8.982 C200.217,8.947 200.289,8.912 200.359,8.877 Z M167.698,2.323 C167.098,2.158 164.999,1.949 164.526,2.111 L164.104,2.111 C164.13,2.108 163.699,3.399 163.787,3.909 C163.894,4.534 163.517,7.045 163.892,7.714 C164.221,9.351 168.003,8.033 169.072,8.771 L169.283,8.771 C169.29,15.424 169.17,20.923 169.178,26.634 C169.18,28.522 168.415,32.778 169.073,34.245 C169.108,34.632 169.143,35.019 169.178,35.407 C171.031,35.811 172.968,35.873 174.146,34.879 C173.626,29.333 175.337,24.81 174.781,19.341 C174.564,17.222 175.096112,15.8877322 174.992,12.999 C174.992,12.3012377 174.992,11.413 174.992,11.413 C174.93,10.405 175.129,9.958 175.415,8.982 C176.679,8.921 179.389,9.086 180.277,8.454 C181.691,7.797 181.122,5.153 182.074,4.015 C181.976,2.346 179.267,2.428 177.527,2.428 C174.336,2.427 169.652,2.861 167.698,2.323 Z M118.97,26.211 C118.744,26.092 118.734,26.029 118.547,25.894 C118.521,23.716 117.655,18.938 118.231,17.861 C119.85,17.11 124.907,18.327 126.687,17.333 C126.792,17.297 126.898,17.262 127.003,17.227 C126.938,15.828 126.762,14.402 126.052,13.634 C125.385,13.175 119.927,13.426 118.654,13.422 C118.059,12.224 118.367,10.033 117.702,8.771 C117.738,8.384 117.773,7.997 117.808,7.609 C120.186,7.628 127.324,8.15 128.589,7.08 C129.509,5.387 128.598,3.187 127.849,2.219 C127.356,2.184 126.863,2.149 126.37,2.113 C125.477,2.669 123.449,2.203 122.141,2.219 C119.636,2.249 113.189,2.352 111.889,3.488 C110.972,5.22 112.169,9.794 111.677,12.366 C111.36,14.028 111.846,16.403 112.1,18.074 C112.516,20.812 112.424,23.503 112.734,25.262 C113.214,27.984 112.569,29.928 113.369,32.133 C113.586,33.482 115.264,33.035 116.54,33.295 C117.466,33.483 119.626,33.269 120.451,33.4 C123.004,33.81 127.659,34.147 130.176,32.977 C131.09,30.497 130.518,27.473 129.964,25.368 C126.991,25.407 120.701,27.068 118.97,26.211 L118.97,26.211 Z M65.8285203,2.60031449 C65.2245203,3.19931449 62.056,2.855 61.258,3.274 C61.23,5.194 60.971,7.893 61.893,8.877 C62.311,9.021 66.433,9.144 66.861,9.088 C66.931,9.158 67.002,9.23 67.072,9.299 C67.091,15.575 66.438,23.213 67.495,28.854 C67.821,30.596 66.943,33.155 67.812,34.985 C67.876,35.485 67.848,35.453 68.235,35.619 C68.985,36.011 74.756,35.756 75,35.619 L75.211,35.619 C75.626,33.549 74.679,31.551 75.106,29.172 C75.211,27.199 75.318,25.226 75.423,23.253 C75.195,21.035 74.725,18.139 75.211,15.537 C75.643,13.226 74.413,11.108 75.106,9.406 L75.106,9.195 C75.969,9.281 78.086,9.398 78.805,8.983 C80.17,8.748 79.97,4.452 79.757,3.17 C77.8,2.787 76.472,3.309 74.153,2.851 C70.73,2.175 69.4535203,2.57731449 65.8285203,2.60031449 Z M59.25,2.851 C56.964,2.405 51.776,2.245 49.208,2.746 C46.951,3.186 44.945,2.506 42.866,2.429 L42.231,3.064 C42.188,6.436 42.69,8.788 42.548,12.154 C42.385,16.05 42.213,20.143 42.548,23.993 L42.548,33.083 C42.56,33.714 42.645,33.795 42.865,34.14 C44.226,34.144 47.594,33.948 48.361,34.352 C48.951,34.326 48.982,34.246 49.312,34.035 C49.419,30.876 49.727,26.564 49.629,23.359 C49.588,21.993 49.214,20.512 49.734,19.448 L49.734,19.237 C51.588,19.227 53.066,19.232 54.596,19.66 C55.124,19.625 55.654,19.59 56.182,19.555 C56.621,19.52 56.661,19.478 56.921,19.343 C56.945,18.127 57.216,16.741 56.71,15.96 L56.71,15.749 C55.368,15.747 51.444,15.467 50.791,15.115 L49.945,15.115 C50.1,13.972 49.6,9.401 49.205,8.138 L49.417,7.926 C50.449,7.887 53.051,7.893 53.75,8.35 C54.42,8.28 55.089,8.208 55.759,8.138 C56.851,8.208 57.944,8.28 59.035,8.35 C59.512,8.329 59.607,8.28 59.881,8.138 C59.842,7.019 59.131,4.428 59.461,3.591 C59.427,3.151 59.385,3.112 59.25,2.851 Z M36.419,3.909 L36.419,3.38 C34.159,2.869 32.464,3.512 30.394,3.064 C30.077,3.169 29.76,3.275 29.443,3.38 C29.147,3.534 29.276,3.397 29.126,3.697 C29.075,3.901 29.392,5.2 29.549,5.388 L29.338,5.493 C30.077,7.169 29.571,9.807 29.654,12.152 C29.767,15.332 30.565,19.834 30.183,23.145 C30.091,23.937 30.449,25.416 30.288,26.316 C29.92,28.381 30.711,32.484 30.288,33.397 C30.323,33.503 30.358,33.609 30.393,33.714 C31.635,34.255 34.099,33.74 35.784,33.503 C36.409,31.248 36.401,28.028 36.419,25.893 C36.383,25.012 36.348,24.131 36.313,23.25 C36.806,20.071 36.276,15.513 36.102,11.623 C35.996,9.266 36.972,5.099 36.419,3.909 L36.419,3.909 Z M5.766,31.39 L5.977,31.495 L5.977,31.433 C5.963,31.419 5.95,31.404 5.936,31.39 L5.766,31.39 L5.766,31.39 Z" id="Shape"></path>
        </g>
    </g>
</svg>
