<svg viewBox="0 0 40 50" version="1.1" xmlns="http://www.w3.org/2000/svg" xmlns:xlink="http://www.w3.org/1999/xlink">
    <g id="Page-1" stroke="none" stroke-width="1" fill="none" fill-rule="evenodd">
        <g id="noun_49516_cc" fill="#304041">
            <path d="M37.525,24.957 L33.712,24.957 L33.712,14.274 L33.708,14.274 C33.655,6.749 27.54,0.665 20.001,0.665 C12.462,0.665 6.348,6.75 6.295,14.274 L6.291,14.274 L6.291,24.957 L2.478,24.957 C1.642,24.957 0.955,25.643 0.955,26.481 L0.955,47.811 C0.955,48.649 1.643,49.334 2.478,49.334 L37.525,49.334 C38.361,49.334 39.045,48.649 39.045,47.811 L39.045,26.481 C39.045,25.643 38.361,24.957 37.525,24.957 L37.525,24.957 Z M11.621,14.274 C11.621,14.286 11.627,14.301 11.627,14.31 C11.658,9.727 15.422,5.997 20.002,5.997 C24.59,5.997 28.346,9.728 28.377,14.31 C28.377,14.301 28.383,14.286 28.383,14.274 L28.383,24.957 L11.621,24.957 L11.621,14.274 L11.621,14.274 Z M22.867,41.002 L17.137,41.002 L18.979,35.635 C17.805,35.214 16.959,34.105 16.959,32.783 C16.959,31.106 18.322,29.745 20.002,29.745 C21.682,29.745 23.043,31.106 23.043,32.783 C23.043,34.105 22.199,35.214 21.025,35.635 L22.867,41.002 L22.867,41.002 Z" id="Shape"></path>
        </g>
    </g>
</svg>
