<svg viewBox="0 0 120 37" version="1.1" xmlns="http://www.w3.org/2000/svg" xmlns:xlink="http://www.w3.org/1999/xlink">
    <style>
      .component {
        fill: black;
      }
    </style>
    <g id="Page-1" stroke="none" stroke-width="1" fill="none" fill-rule="evenodd">
        <g id="Desktop-HD" transform="translate(-727.000000, -136.000000)">
            <path class="component" d="M739.584619,143.849672 C739.584619,143.849672 739.566355,145.194008 739.319594,146.066 C739.072832,146.937993 738.689145,147.668 738.689145,147.668 C737.932405,148.802642 736.568013,149.443999 734.048,149.648 C732.271991,149.72 730.880005,149.222005 729.872,148.154 C728.815995,147.037994 728.306,145.44201 728.342,143.366 C728.39,141.43399 729.049994,139.976005 730.322,138.992 C731.390005,138.175996 732.685992,137.792 734.21,137.84 C735.026004,137.912 735.763997,138.037999 736.424,138.218 C738.008008,138.662002 739.057997,139.363995 739.574,140.324 L738.242,141.566 C737.941999,140.437994 736.682011,139.886 734.462,139.91 C732.985993,139.982 731.882004,140.431996 731.15,141.26 C730.609997,141.884003 730.34,142.615996 730.34,143.456 C730.34,144.332004 730.603997,145.201996 731.132,146.066 C731.804003,147.134005 732.691994,147.668 733.796,147.668 C734.540004,147.656 735.199997,147.608 735.776,147.524 C737.156007,147.307999 737.353293,146.033777 737.617294,145.517774 L734.3214,145.245307 L734.523647,143.726525 L739.584619,143.849672 Z M790.584619,143.849672 C790.584619,143.849672 790.566355,145.194008 790.319594,146.066 C790.072832,146.937993 789.689145,147.668 789.689145,147.668 C788.932405,148.802642 787.568013,149.443999 785.048,149.648 C783.271991,149.72 781.880005,149.222005 780.872,148.154 C779.815995,147.037994 779.306,145.44201 779.342,143.366 C779.39,141.43399 780.049994,139.976005 781.322,138.992 C782.390005,138.175996 783.685992,137.792 785.21,137.84 C786.026004,137.912 786.763997,138.037999 787.424,138.218 C789.008008,138.662002 790.057997,139.363995 790.574,140.324 L789.242,141.566 C788.941999,140.437994 787.682011,139.886 785.462,139.91 C783.985993,139.982 782.882004,140.431996 782.15,141.26 C781.609997,141.884003 781.34,142.615996 781.34,143.456 C781.34,144.332004 781.603997,145.201996 782.132,146.066 C782.804003,147.134005 783.691994,147.668 784.796,147.668 C785.540004,147.656 786.199997,147.608 786.776,147.524 C788.156007,147.307999 788.353293,146.033777 788.617294,145.517774 L785.3214,145.245307 L785.523647,143.726525 L790.584619,143.849672 Z M743.12,149.648 L740.744,149.486 L740.582,137.93 L742.94,137.84 L743.12,149.648 Z M753.326,137.84 L753.236,139.82 L746.198,139.82 L746.108,142.034 L751.94,141.944 L751.94,143.744 L746.108,143.834 L746.108,149.648 L743.966,149.576 L743.966,137.84 L753.326,137.84 Z M765.011093,139.620634 L760.552,139.64 L760.624,149.648 L758.914,149.648 L758.752,139.73 L754.253931,139.672438 L754.091931,137.962438 L765.011093,137.820634 L765.011093,139.620634 Z M768.634,149.648 L766.258,149.486 L766.096,137.93 L768.454,137.84 L768.634,149.648 Z M778.637988,149.576 L775.829988,149.486 L771.563988,141.854 L771.815988,149.576 L769.799988,149.648 L769.889988,138.02 L771.635988,137.93 L776.873988,147.884 L776.783988,137.84 L778.151988,137.93 L778.637988,149.576 Z" id="GIFTING-SUCKS."></path>
            <path class="component" d="M744.043201,171.172942 L741.684427,171.389564 L738.699856,165.637044 L733.308373,165.011246 L731.45505,171.389564 L729,171.389564 L733.476857,155.913119 L736.437359,155.60022 L744.043201,171.172942 Z M738.146266,163.735583 L735.450525,158.440376 L733.886032,163.133855 L738.146266,163.735583 Z M763.105945,156.033464 L758.725365,171.389564 L757.016458,171.172942 L753.815264,158.584791 L750.180827,171.172942 L748.471919,171.172942 L744.524583,156.346363 L747.196256,156.15381 L749.434684,167.995818 L752.29891,155.60022 L754.657684,156.15381 L757.955153,166.479463 L759.880683,156.250086 L763.105945,156.033464 Z M777.884386,158.223754 L767.534664,158.223754 L767.534664,163.133855 L776.151409,163.230131 L776.031064,165.420422 L767.967908,165.73332 L767.967908,168.573476 L777.76404,168.693822 L777.547418,171.389564 L764.261263,171.389564 L764.261263,155.60022 L777.451142,155.840911 L777.884386,158.223754 Z M794.010697,160.510321 L791.363094,160.510321 C790.464509,158.937797 789.052468,158.055271 787.126929,157.862717 C786.87019,157.862717 786.380789,157.838649 785.658712,157.79051 C785.113143,157.758418 784.695949,157.742372 784.407118,157.742372 C783.685041,157.742372 783.171571,157.838647 782.866694,158.031201 C782.497632,158.271894 782.32915,158.689088 782.361243,159.282796 C782.409381,160.149288 783.420274,160.855309 785.393952,161.400878 C787.110891,161.785986 788.835828,162.163065 790.568813,162.532127 C791.868552,162.837004 792.791192,163.583139 793.336762,164.770555 C793.657685,165.492633 793.818144,166.294929 793.818144,167.177467 C793.818144,169.985546 791.55567,171.389564 787.030652,171.389564 C785.682775,171.325379 784.479331,171.100736 783.420284,170.715628 C780.917083,169.784951 779.368651,168.164313 778.774943,165.853666 L781.518823,165.757389 C782.401362,167.907575 784.086184,169.070904 786.573339,169.247412 C789.349325,169.247412 790.737297,168.517323 790.737297,167.057122 C790.737297,165.693198 790.023253,164.794627 788.595145,164.36138 C786.958437,164.024411 785.321753,163.687446 783.685044,163.350477 C782.000197,162.885138 780.764661,162.26737 779.9784,161.497155 C779.368645,160.903447 778.935406,160.101151 778.678667,159.090243 C778.614482,158.817458 778.839125,158.41631 779.352602,157.886787 C779.978403,157.212848 780.844882,156.683332 781.952067,156.298224 C783.380176,155.784747 785.07302,155.560104 787.030652,155.624289 C788.45876,155.736612 789.67825,155.977301 790.689159,156.346363 C793.096083,157.196809 794.203251,158.584781 794.010697,160.510321 L794.010697,160.510321 Z M813.819584,163.735583 C813.819584,165.757399 813.017288,167.46629 811.412672,168.862306 C809.406902,170.611338 806.430384,171.453748 802.483028,171.389564 C800.204473,171.373518 798.303032,170.474946 796.778646,168.693822 C795.494953,167.185483 794.853117,165.596937 794.853117,163.928136 C794.853117,163.173966 795.238219,162.163073 796.008434,160.895427 C796.90702,159.41918 798.006165,158.215736 799.305904,157.285058 C800.894474,156.129735 802.571273,155.568128 804.336351,155.60022 C807.866506,155.664405 810.433853,156.635183 812.038469,158.512584 C813.225885,159.876507 813.819584,161.61749 813.819584,163.735583 L813.819584,163.735583 Z M810.522115,166.238772 C810.826992,165.356233 810.979428,164.521845 810.979428,163.735583 C810.979428,162.275382 810.457936,161.063915 809.414935,160.101146 C808.564489,159.298838 807.473366,158.761299 806.141535,158.488515 C805.339227,158.312007 804.560999,158.223754 803.80683,158.223754 C800.693875,158.223754 798.656043,159.603703 797.693273,162.363643 C797.58095,162.700613 797.524789,163.037577 797.524789,163.374546 C797.524789,164.658239 798.238833,165.949936 799.666941,167.249675 C800.886449,168.340814 801.977572,168.990674 802.940341,169.199274 C803.421726,169.295551 803.951242,169.343688 804.528904,169.343688 C805.860735,169.343688 807.056156,169.103 808.115203,168.621615 C809.366803,168.059999 810.169099,167.265726 810.522115,166.238772 L810.522115,166.238772 Z M830.331002,171.389564 L828.598025,171.293287 L827.707468,161.761915 L823.615717,171.172942 L821.32915,171.172942 L816.804156,161.328671 L816.924501,171.076665 L814.421312,171.172942 L814.541658,155.60022 L816.68381,155.720566 L822.652952,168.164301 L828.044435,156.15381 L829.777412,156.250086 L830.331002,171.389564 Z M845.422341,158.223754 L835.072619,158.223754 L835.072619,163.133855 L843.689364,163.230131 L843.569019,165.420422 L835.505863,165.73332 L835.505863,168.573476 L845.301995,168.693822 L845.085373,171.389564 L831.799218,171.389564 L831.799218,155.60022 L844.989097,155.840911 L845.422341,158.223754 Z" id="AWESOME"></path>
            <path class="component" d="M811.4,149.750001 L810.1,149.650001 L809.44,142.530001 L806.38,149.570001 L804.68,149.570001 L801.28,142.210001 L801.36,149.490001 L799.5,149.570001 L799.58,137.930001 L801.2,138.010001 L805.66,147.330001 L809.7,138.330001 L811,138.410001 L811.4,149.750001 Z M823.42,149.570001 L821.66,149.750001 L819.42,145.430001 L815.38,144.950001 L814,149.750001 L812.16,149.750001 L815.52,138.170001 L817.72,137.930001 L823.42,149.570001 Z M819,144.010001 L816.98,140.050001 L815.8,143.570001 L819,144.010001 Z M834.16,144.430001 C834.066666,145.550007 833.780002,146.509997 833.3,147.310001 C832.113327,149.230011 830.026682,150.190001 827.04,150.190001 C826.199996,150.190001 825.300005,150.116669 824.34,149.970001 L824.14,137.270001 C824.953337,137.136667 825.726663,137.070001 826.46,137.070001 C829.633349,137.070001 831.86666,138.296656 833.16,140.750001 C833.706669,141.776673 834.039999,143.003327 834.16,144.430001 L834.16,144.430001 Z M831.66,144.770001 C831.593333,143.716663 831.420001,142.810005 831.14,142.050001 C830.486663,140.223325 829.373341,139.310001 827.8,139.310001 C827.386665,139.310001 826.946669,139.376667 826.48,139.510001 L826.74,147.910001 C828.806677,147.790001 830.246663,147.236673 831.06,146.250001 C831.393335,145.823332 831.593333,145.330004 831.66,144.770001 L831.66,144.770001 Z M845,139.890001 L837.28,139.890001 L837.28,143.550001 L843.7,143.630001 L843.62,145.270001 L837.6,145.510001 L837.6,147.630001 L844.92,147.710001 L844.76,149.750001 L834.82,149.750001 L834.82,137.930001 L844.68,138.090001 L845,139.890001 Z" id="maDe"></path>
            <path class="component" d="M791.944619,149.64 L790.584619,149.78 L790.584619,148 L791.844619,148.12 L791.944619,149.64 Z" id="."></path>
        </g>
    </g>
</svg>
